name 900006_25ik_lsw.mot
datacolumns 165
datarows 4
range 0.23333000 0.25833000
cursor 1.0 1.0 0.0
keys m_key
wrap
enforce_loops no
enforce_constraints no
calc_derivatives 0.008333
event_color 1.000000 0.000000 1.000000
endheader

                time	          calcn_r_tx	          calcn_r_ty	          calcn_r_tz	          calcn_r_r1	          calcn_r_r2	          calcn_r_r3	          calcn_l_tx	          calcn_l_ty	          calcn_l_tz	          calcn_l_r1	          calcn_l_r2	          calcn_l_r3	           pelvis_tz	           pelvis_tx	           pelvis_ty	         pelvis_tilt	         pelvis_list	     pelvis_rotation	       hip_flexion_r	     hip_adduction_r	      hip_rotation_r	        knee_angle_r	       ankle_angle_r	    subtalar_angle_r	         mtp_angle_r	       hip_flexion_l	     hip_adduction_l	      hip_rotation_l	        knee_angle_l	       ankle_angle_l	    subtalar_angle_l	         mtp_angle_l	    lumbar_extension	      lumbar_bending	     lumbar_rotation	     ground_force_px	     ground_force_py	     ground_force_pz	     ground_force_vx	     ground_force_vy	     ground_force_vz	     ground_force_px	     ground_force_py	     ground_force_pz	     ground_force_vx	     ground_force_vy	     ground_force_vz	     ground_torque_x	     ground_torque_y	     ground_torque_z	     ground_torque_x	     ground_torque_y	     ground_torque_z	           midhip_px	           midhip_py	           midhip_pz	            hip_r_px	            hip_r_py	            hip_r_pz	            hip_l_px	            hip_l_py	            hip_l_pz	           knee_r_px	           knee_r_py	           knee_r_pz	           knee_l_px	           knee_l_py	           knee_l_pz	          ankle_r_px	          ankle_r_py	          ankle_r_pz	          ankle_l_px	          ankle_l_py	          ankle_l_pz	          midasis_px	          midasis_py	          midasis_pz	           asis_r_px	           asis_r_py	           asis_r_pz	           asis_l_px	           asis_l_py	           asis_l_pz	           psis_r_px	           psis_r_py	           psis_r_pz	           psis_l_px	           psis_l_py	           psis_l_pz	     epicondLat_r_px	     epicondLat_r_py	     epicondLat_r_pz	     epicondLat_l_px	     epicondLat_l_py	     epicondLat_l_pz	     epicondMed_r_px	     epicondMed_r_py	     epicondMed_r_pz	     epicondMed_l_px	     epicondMed_l_py	     epicondMed_l_pz	   malleolusLat_r_px	   malleolusLat_r_py	   malleolusLat_r_pz	   malleolusLat_l_px	   malleolusLat_l_py	   malleolusLat_l_pz	  malleolusMedv_r_px	  malleolusMedv_r_py	  malleolusMedv_r_pz	  malleolusMedv_l_px	  malleolusMedv_l_py	  malleolusMedv_l_pz	     sternalnotch_px	     sternalnotch_py	     sternalnotch_pz	   xyphoidprocess_px	   xyphoidprocess_py	   xyphoidprocess_pz	             neck_px	             neck_py	             neck_pz	            toe_r_px	            toe_r_py	            toe_r_pz	            toe_l_px	            toe_l_py	            toe_l_pz	      thighwand_r_px	      thighwand_r_py	      thighwand_r_pz	      thighwand_l_px	      thighwand_l_py	      thighwand_l_pz	      upperleg1_r_px	      upperleg1_r_py	      upperleg1_r_pz	      upperleg1_l_px	      upperleg1_l_py	      upperleg1_l_pz	      upperleg2_r_px	      upperleg2_r_py	      upperleg2_r_pz	      upperleg2_l_px	      upperleg2_l_py	      upperleg2_l_pz	      shankwand_r_px	      shankwand_r_py	      shankwand_r_pz	      shankwand_l_px	      shankwand_l_py	      shankwand_l_pz	      lowerleg1_r_px	      lowerleg1_r_py	      lowerleg1_r_pz	      lowerleg1_l_px	      lowerleg1_l_py	      lowerleg1_l_pz	    subclavicle_r_px	    subclavicle_r_py	    subclavicle_r_pz	    subclavicle_l_px	    subclavicle_l_py	    subclavicle_l_pz	
          0.23333000	         -2.43243956	          0.18388936	          0.31112561	         -2.40106807	        -11.52932381	        -54.77612040	         -2.10159721	          0.03336401	          0.19782732	         -3.04944484	         -6.30018174	          0.35614389	          0.26102908	         -2.03803240	          0.83212339	          3.31991018	          1.64159807	         -9.51472739	         -2.73497123	         -5.89781934	         -2.28667857	        -48.05577716	         -6.79091249	          0.00000000	          0.00000000	          5.29218747	          4.90947780	         -4.32075061	        -10.05014344	          2.69511781	          0.00000000	          0.00000000	         -3.91093502	         -0.02381033	          1.52465627	         -1.70304398	          0.00000000	          0.31304065	          0.00000000	          0.00000000	          0.00000000	         -2.01930123	          0.00000000	          0.20033679	        -34.94684915	        435.90363774	         17.92459552	          0.00000000	          0.00000000	          0.00000000	          0.00000000	          0.96728265	          0.00000000	         -2.06854201	          0.76689026	          0.24692280	         -2.08562131	          0.76187824	          0.30152255	         -2.05146312	          0.77190197	          0.19232322	         -2.13816505	          0.41131118	          0.33660219	         -2.06010598	          0.42694478	          0.19952397	         -2.37935394	          0.16574882	          0.31368542	         -2.05775535	          0.06563822	          0.20672571	         -2.03775281	          0.83973018	          0.26267652	         -2.05610931	          0.83639924	          0.37269340	         -2.01939676	          0.84306106	          0.15265959	         -2.21273068	          0.86442579	          0.25895273	         -2.20791600	          0.86612815	          0.21250341	         -2.12924367	          0.41312907	          0.39546408	         -2.04111174	          0.41748899	          0.14035212	         -2.10494634	          0.40363007	          0.27316907	         -2.06216864	          0.42019471	          0.25546318	         -2.38988032	          0.17322259	          0.34888560	         -2.06442480	          0.06476643	          0.17085097	         -2.37512970	          0.15848417	          0.28103031	         -2.06260619	          0.06685246	          0.24015046	         -2.04994954	          1.19481053	          0.24014554	         -2.03851853	          1.09334166	          0.23620041	         -2.16067801	          1.26326509	          0.23334460	         -2.34623859	          0.08612729	          0.34042814	         -1.96631764	          0.04608220	          0.20432055	         -1.99282803	          0.54947207	          0.38156935	         -1.94503980	          0.57343413	          0.13696855	         -2.05236881	          0.58997071	          0.40216829	         -1.98003219	          0.61828129	          0.19701076	         -2.06270914	          0.53203076	          0.39856031	         -1.98588183	          0.56086155	          0.20491435	         -2.21562176	          0.16463105	          0.37079870	         -2.06320886	          0.16458018	          0.07880980	         -2.27626702	          0.20681103	          0.33804766	         -2.06371216	          0.15819178	          0.15831114	         -2.05506242	          1.19346980	          0.29712535	         -2.04008925	          1.19663652	          0.19006228	
          0.24166333	         -2.42208597	          0.18449543	          0.31087930	         -2.49141221	        -11.56941339	        -54.51460428	         -2.10124896	          0.03352774	          0.19808499	         -3.15678553	         -6.59296556	          0.18216582	          0.26007884	         -2.03197347	          0.83241224	          3.39024522	          1.54310170	         -9.59234982	         -1.99894685	         -5.85001342	         -2.15439902	        -49.00247562	         -6.36650443	          0.00000000	          0.00000000	          4.90533843	          5.01753608	         -4.17524438	        -10.35098355	          3.16116257	          0.00000000	          0.00000000	         -3.98306175	         -0.05805392	          1.37263805	         -1.70056530	          0.00000000	          0.31350165	          0.00000000	          0.00000000	          0.00000000	         -2.01549527	          0.00000000	          0.20019819	        -34.87207703	        438.02035261	         18.64538889	          0.00000000	          0.00000000	          0.00000000	          0.00000000	          1.08946171	          0.00000000	         -2.06262208	          0.76691905	          0.24647224	         -2.07977026	          0.76192453	          0.30105199	         -2.04547425	          0.77191313	          0.19189288	         -2.12688913	          0.41047957	          0.33647722	         -2.05436680	          0.42733082	          0.19953622	         -2.36863561	          0.16669069	          0.31302938	         -2.05754743	          0.06563152	          0.20675665	         -2.03202235	          0.83984881	          0.26218887	         -2.05053776	          0.83658766	          0.37219970	         -2.01350755	          0.84310986	          0.15217781	         -2.20705510	          0.86426460	          0.25813022	         -2.20223814	          0.86604368	          0.21181165	         -2.11844887	          0.41318437	          0.39531619	         -2.03696027	          0.41739088	          0.14034588	         -2.09366039	          0.40302536	          0.27367980	         -2.05667579	          0.41911357	          0.25387585	         -2.37968000	          0.17470632	          0.34794751	         -2.06416620	          0.06482027	          0.17087117	         -2.36405467	          0.15888677	          0.28058007	         -2.06225187	          0.06705785	          0.24016147	         -2.04428277	          1.19492258	          0.23962359	         -2.03284603	          1.09344752	          0.23585300	         -2.15489791	          1.26333329	          0.23228350	         -2.33591247	          0.08808986	          0.34213798	         -1.96628170	          0.04594803	          0.20441509	         -1.98392758	          0.55113445	          0.38127502	         -1.93984913	          0.57323580	          0.13717826	         -2.04402497	          0.59084016	          0.40179522	         -1.97502960	          0.61798503	          0.19763731	         -2.05339536	          0.53266516	          0.39844797	         -1.98070491	          0.56063289	          0.20489816	         -2.20591485	          0.16555284	          0.37273177	         -2.06176984	          0.16454333	          0.07870393	         -2.26601069	          0.20735382	          0.33857090	         -2.06227665	          0.15824326	          0.15811637	         -2.04964122	          1.19365167	          0.29662128	         -2.03420590	          1.19668685	          0.18954186	
          0.24999667	         -2.41170717	          0.18466068	          0.31152832	         -2.58158621	        -11.51010024	        -54.06772241	         -2.10081496	          0.03365744	          0.19735026	         -3.13884317	         -6.90829859	          0.07670405	          0.25976319	         -2.02585768	          0.83262379	          3.41455691	          1.48417235	         -9.67795088	         -1.23412982	         -5.80263518	         -1.91802074	        -49.85748397	         -5.81912913	          0.00000000	          0.00000000	          4.55223726	          5.03929163	         -4.01406566	        -10.65222906	          3.69442284	          0.00000000	          0.00000000	         -4.00901486	         -0.07443354	          1.20970447	         -1.69818416	          0.00000000	          0.31394871	          0.00000000	          0.00000000	          0.00000000	         -2.01181944	          0.00000000	          0.20010165	        -34.62271972	        439.49769905	         19.23086699	          0.00000000	          0.00000000	          0.00000000	          0.00000000	          1.20186167	          0.00000000	         -2.05690032	          0.76702501	          0.24606544	         -2.07413238	          0.76205652	          0.30062109	         -2.03966849	          0.77199292	          0.19151032	         -2.11567914	          0.40994676	          0.33627164	         -2.04887142	          0.42759958	          0.19962892	         -2.35753306	          0.16718971	          0.31248237	         -2.05734382	          0.06562786	          0.20677852	         -2.02637139	          0.83998670	          0.26176349	         -2.04505717	          0.83679233	          0.37177636	         -2.00768629	          0.84318086	          0.15175021	         -2.20163359	          0.86431511	          0.25744381	         -2.19664457	          0.86600275	          0.21117746	         -2.10764128	          0.41328642	          0.39509992	         -2.03287208	          0.41726825	          0.14040591	         -2.08242469	          0.40298987	          0.27350599	         -2.05158101	          0.41822586	          0.25258610	         -2.36907970	          0.17572416	          0.34711397	         -2.06389160	          0.06488153	          0.17087869	         -2.35259119	          0.15885557	          0.28024369	         -2.06191981	          0.06727169	          0.24015949	         -2.03866142	          1.19503927	          0.23908486	         -2.02717008	          1.09356516	          0.23545238	         -2.14918834	          1.26334213	          0.23130393	         -2.32490608	          0.08974848	          0.34356333	         -1.96624671	          0.04584418	          0.20446485	         -1.97495496	          0.55283381	          0.38083135	         -1.93469557	          0.57299475	          0.13742737	         -2.03565328	          0.59166376	          0.40142840	         -1.97007193	          0.61765029	          0.19820395	         -2.04407163	          0.53341894	          0.39813557	         -1.97567111	          0.56034624	          0.20495112	         -2.19587608	          0.16640452	          0.37460596	         -2.06028465	          0.16451523	          0.07858866	         -2.25539996	          0.20768825	          0.33909887	         -2.06083813	          0.15830881	          0.15791789	         -2.04425888	          1.19381584	          0.29608613	         -2.02837430	          1.19676400	          0.18901870	
          0.25833000	         -2.40068313	          0.18452404	          0.31120644	         -2.57336406	        -11.50256532	        -53.60543002	         -2.10082927	          0.03399818	          0.19728396	         -3.19316193	         -7.14512465	         -0.18721579	          0.25953440	         -2.01917299	          0.83271669	          3.27795926	          1.45313572	         -9.76814922	         -0.34494453	         -5.67268846	         -1.73586906	        -50.58937264	         -5.36071855	          0.00000000	          0.00000000	          4.26624978	          5.11413146	         -3.91288467	        -10.86154695	          4.08231750	          0.00000000	          0.00000000	         -3.98327093	         -0.06007519	          1.10101546	         -1.69588896	          0.00000000	          0.31436617	          0.00000000	          0.00000000	          0.00000000	         -2.00825336	          0.00000000	          0.20003277	        -34.21006774	        440.27734484	         19.68160865	          0.00000000	          0.00000000	          0.00000000	          0.00000000	          1.30950096	          0.00000000	         -2.05137340	          0.76720923	          0.24569422	         -2.06870117	          0.76227666	          0.30022277	         -2.03404573	          0.77214109	          0.19116625	         -2.10463567	          0.40970889	          0.33596845	         -2.04364395	          0.42774498	          0.19979033	         -2.34608423	          0.16724228	          0.31204230	         -2.05713630	          0.06562769	          0.20679369	         -2.02079600	          0.84014831	          0.26138844	         -2.03965714	          0.83702235	          0.37140074	         -2.00193552	          0.84327393	          0.15137560	         -2.19646777	          0.86458180	          0.25689782	         -2.19112662	          0.86600529	          0.21058998	         -2.09683119	          0.41342816	          0.39480532	         -2.02886200	          0.41711797	          0.14052177	         -2.07134909	          0.40341928	          0.27281055	         -2.04684372	          0.41761286	          0.25168058	         -2.35809898	          0.17624836	          0.34639734	         -2.06359530	          0.06494887	          0.17087654	         -2.34077910	          0.15842515	          0.28000233	         -2.06161647	          0.06748257	          0.24014830	         -2.03306479	          1.19515726	          0.23850560	         -2.02147172	          1.09369159	          0.23496058	         -2.14354321	          1.26329833	          0.23041442	         -2.31322477	          0.09106599	          0.34463131	         -1.96620535	          0.04576247	          0.20448152	         -1.96591839	          0.55455396	          0.38027284	         -1.92960147	          0.57269440	          0.13768167	         -2.02724534	          0.59244177	          0.40105470	         -1.96514260	          0.61730868	          0.19863992	         -2.03477107	          0.53428523	          0.39766523	         -1.97075917	          0.56006022	          0.20503741	         -2.18548003	          0.16714994	          0.37632070	         -2.05875582	          0.16449131	          0.07847080	         -2.24441412	          0.20786977	          0.33955030	         -2.05941026	          0.15838834	          0.15773454	         -2.03888674	          1.19395188	          0.29549789	         -2.02258080	          1.19687082	          0.18846674	
